# xmcd CD database file
# Copyright (C) 1993-1998 Ti Kan
# 
# Track frame offsets:
#     150
#     24532
#     64112
#     107090
#     137197
#     164902
# 
# Disc length: 2553 seconds
# 
# Revision: 1
# Processed by: cddbd v1.4b41PL1 Copyright (c) Steve Scherf et al.
# Submitted via: DiscPlay 4.0.4
# 
DISCID=5509f706
DTITLE=Shakira - The Remixes
DYEAR=1900
DGENRE=
TTITLE0=Estoy Aqui (The Love and House Radio)
TTITLE1=Donde Estas Corazon (Dance Remix)
TTITLE2=Estoy Aqui (Meme's Extended Club Mix)
TTITLE3=Donde Estas Corazon (Dub - A - Pella)
TTITLE4=Estoy Aqui (Meme's Timbalero Dub)
TTITLE5=Donde Estas Corazon (Rap - A - Pella)
EXTD=
EXTT0=
EXTT1=
EXTT2=
EXTT3=
EXTT4=
EXTT5=
PLAYORDER=
